<svg width="512" height="512" viewBox="0 0 512 512" fill="none" xmlns="http://www.w3.org/2000/svg">
<path d="M347.819 32.6699L344.455 33.387L342.243 36.0224L28.4273 410.014L21.9994 417.674L29.6599 424.102C81.5848 467.672 148.691 488.831 216.216 482.923C283.742 477.015 346.154 444.525 389.725 392.6C433.295 340.675 454.453 273.569 448.546 206.044C447.962 199.371 447.101 192.773 445.973 186.259C457.034 190.16 469.097 193.8 482.232 197.156L494.708 200.345V187.468C494.708 156.701 482.127 113.751 458.123 80.6566C433.923 47.2909 396.641 22.2653 347.819 32.6699Z" fill="white" stroke="white" stroke-width="20"/>
<path d="M349.904 42.4503C399.797 84.3157 432.907 142.032 438.584 206.915C444.26 271.799 423.929 336.279 382.064 386.172C340.199 436.066 280.228 467.285 215.345 472.961C150.462 478.638 85.9809 458.307 36.0877 416.442L349.904 42.4503Z" fill="#FAE04C"/>
<path d="M349.75 42.1482C317.888 86.2174 308.126 146.642 410.904 230.871C435.086 179.012 436.694 62.172 349.75 42.1482Z" fill="#6CAB4C"/>
<path d="M349.525 42.2717C339.273 95.6772 355.962 154.566 484.708 187.468C484.708 130.248 436.786 23.6752 349.525 42.2717Z" fill="#A0DF7F"/>
</svg>
