<svg width="1306" height="512" viewBox="0 0 1306 512" fill="none" xmlns="http://www.w3.org/2000/svg">
<path d="M349.52 60.749C393.989 98.0635 423.5 149.506 428.56 207.336C433.619 265.166 415.499 322.637 378.184 367.107C340.87 411.577 287.418 439.402 229.588 444.461C171.758 449.521 114.287 431.4 69.817 394.086L349.52 60.749Z" fill="#FAE04C"/>
<path d="M349.382 60.4799C320.984 99.7585 312.284 153.615 403.889 228.688C425.443 182.466 426.875 78.327 349.382 60.4799Z" fill="#6CAB4C"/>
<path d="M349.182 60.5899C340.045 108.19 354.92 160.678 469.67 190.003C469.67 139.003 426.957 44.0149 349.182 60.5899Z" fill="#A0DF7F"/>
<path d="M639.6 367.6C617.8 367.6 598.1 362.9 580.5 353.5C563.1 344.1 549.4 331.2 539.4 314.8C529.6 298.2 524.7 279.6 524.7 259C524.7 238.4 529.6 219.9 539.4 203.5C549.4 186.9 563.1 173.9 580.5 164.5C598.1 155.1 617.8 150.4 639.6 150.4C661.4 150.4 681 155.1 698.4 164.5C715.8 173.9 729.5 186.9 739.5 203.5C749.5 219.9 754.5 238.4 754.5 259C754.5 279.6 749.5 298.2 739.5 314.8C729.5 331.2 715.8 344.1 698.4 353.5C681 362.9 661.4 367.6 639.6 367.6ZM639.6 326.2C652 326.2 663.2 323.4 673.2 317.8C683.2 312 691 304 696.6 293.8C702.4 283.6 705.3 272 705.3 259C705.3 246 702.4 234.4 696.6 224.2C691 214 683.2 206.1 673.2 200.5C663.2 194.7 652 191.8 639.6 191.8C627.2 191.8 616 194.7 606 200.5C596 206.1 588.1 214 582.3 224.2C576.7 234.4 573.9 246 573.9 259C573.9 272 576.7 283.6 582.3 293.8C588.1 304 596 312 606 317.8C616 323.4 627.2 326.2 639.6 326.2ZM863.325 200.2C883.325 200.2 899.425 206.2 911.625 218.2C924.025 230.2 930.225 248 930.225 271.6V364H883.425V278.8C883.425 266 880.625 256.5 875.025 250.3C869.425 243.9 861.325 240.7 850.725 240.7C838.925 240.7 829.525 244.4 822.525 251.8C815.525 259 812.025 269.8 812.025 284.2V364H765.225V141.4H812.025V219.4C818.225 213.2 825.725 208.5 834.525 205.3C843.325 201.9 852.925 200.2 863.325 200.2ZM1110 283.9C1110 284.5 1109.7 288.7 1109.1 296.5H987.005C989.205 306.5 994.405 314.4 1002.6 320.2C1010.8 326 1021 328.9 1033.2 328.9C1041.6 328.9 1049 327.7 1055.4 325.3C1062 322.7 1068.1 318.7 1073.7 313.3L1098.6 340.3C1083.4 357.7 1061.2 366.4 1032 366.4C1013.8 366.4 997.705 362.9 983.705 355.9C969.705 348.7 958.905 338.8 951.305 326.2C943.705 313.6 939.905 299.3 939.905 283.3C939.905 267.5 943.605 253.3 951.005 240.7C958.605 227.9 968.905 218 981.905 211C995.105 203.8 1009.8 200.2 1026 200.2C1041.8 200.2 1056.1 203.6 1068.9 210.4C1081.7 217.2 1091.7 227 1098.9 239.8C1106.3 252.4 1110 267.1 1110 283.9ZM1026.3 235.6C1015.7 235.6 1006.8 238.6 999.605 244.6C992.405 250.6 988.005 258.8 986.405 269.2H1065.9C1064.3 259 1059.9 250.9 1052.7 244.9C1045.5 238.7 1036.7 235.6 1026.3 235.6ZM1275.93 202.6L1203.03 373.9C1195.63 392.5 1186.43 405.6 1175.43 413.2C1164.63 420.8 1151.53 424.6 1136.13 424.6C1127.73 424.6 1119.43 423.3 1111.23 420.7C1103.03 418.1 1096.33 414.5 1091.13 409.9L1108.23 376.6C1111.83 379.8 1115.93 382.3 1120.53 384.1C1125.33 385.9 1130.03 386.8 1134.63 386.8C1141.03 386.8 1146.23 385.2 1150.23 382C1154.23 379 1157.83 373.9 1161.03 366.7L1161.63 365.2L1091.73 202.6H1140.03L1185.33 312.1L1230.93 202.6H1275.93Z" fill="black"/>
</svg>
